<svg width="93" height="74" viewBox="0 0 93 74" fill="none" xmlns="http://www.w3.org/2000/svg">
<path d="M22.5467 35.3349C22.1195 35.3943 21.718 35.4687 21.3673 35.5597C22.5907 31.4699 25.2118 27.0928 28.4574 23.1931C31.9534 18.9926 36.1367 15.3908 39.9909 13.3257L40.6557 12.9695L40.0687 12.4959L26.5781 1.61087L26.2856 1.37483L25.9776 1.59029C10.6587 12.3058 0.5 29.0237 0.5 47.7665C0.5 64.0903 10.9943 73.5 22.8302 73.5C33.6575 73.5 42.7075 64.3662 42.7075 53.4564C42.7075 42.5611 35.1433 35.1446 25.5283 35.1446C24.5288 35.1446 23.4628 35.2075 22.5467 35.3349ZM72.5844 35.3349C72.1465 35.3958 71.7355 35.4725 71.3786 35.5666C72.5012 31.4803 75.1228 27.1006 78.4018 23.1947C81.9275 18.9951 86.1724 15.3919 90.0286 13.3257L90.6998 12.9661L90.103 12.4931L76.3671 1.60813L76.0752 1.37679L75.77 1.59029C60.4473 12.3085 50.5377 29.0279 50.5377 47.7665C50.5377 55.9125 53.0867 62.3478 57.1391 66.7519C61.1915 71.1559 66.7224 73.5 72.6226 73.5C83.6993 73.5 92.5 64.362 92.5 53.4564C92.5 42.566 84.9404 35.1446 75.566 35.1446C74.5665 35.1446 73.5006 35.2075 72.5844 35.3349Z" stroke="#093637" stroke-opacity="0.08"/>
<path d="M23 40.561C23 48.4878 28.3208 53 34.2749 53C39.7224 53 44.283 48.6098 44.283 43.3659C44.283 38.122 40.4825 34.5854 35.6685 34.5854C34.655 34.5854 33.5148 34.7073 33.1348 34.9512C34.2749 30.561 38.9623 25.439 43.0162 23.3659L36.0485 18C28.1941 23.2439 23 31.4146 23 40.561ZM48.8437 40.561C48.8437 48.4878 54.0377 53 59.9919 53C65.566 53 70 48.6098 70 43.3659C70 38.122 66.1995 34.5854 61.5121 34.5854C60.4987 34.5854 59.3585 34.7073 58.9784 34.9512C59.9919 30.561 64.8059 25.439 68.8598 23.3659L61.7655 18C53.9111 23.2439 48.8437 31.4146 48.8437 40.561Z" fill="#093637"/>
</svg>
