<?xml version="1.0" encoding="UTF-8"?>
<svg version="1.1" xmlns="http://www.w3.org/2000/svg" width="119" height="81">
<path d="M0 0 C3.14431363 1.28740442 5.49288345 3.56977671 8.00756836 5.79638672 C9.15772605 6.79610254 10.30878436 7.79478307 11.46069336 8.79248047 C12.03883789 9.29505371 12.61698242 9.79762695 13.21264648 10.31542969 C16.72447927 13.31751222 20.3689582 16.15788612 23.99584961 19.01904297 C24.6390918 19.60556641 25.28233398 20.19208984 25.94506836 20.79638672 C25.94506836 21.45638672 25.94506836 22.11638672 25.94506836 22.79638672 C21.36517413 23.26372286 18.69652323 22.96899688 15.00756836 20.29638672 C13.99694336 19.47138672 12.98631836 18.64638672 11.94506836 17.79638672 C11.94506836 18.45638672 11.94506836 19.11638672 11.94506836 19.79638672 C6.53330365 23.79638672 6.53330365 23.79638672 3.94506836 23.79638672 C3.61506836 25.77638672 3.28506836 27.75638672 2.94506836 29.79638672 C3.60506836 29.79638672 4.26506836 29.79638672 4.94506836 29.79638672 C5.93506836 32.27138672 5.93506836 32.27138672 6.94506836 34.79638672 C5.62506836 34.79638672 4.30506836 34.79638672 2.94506836 34.79638672 C3.30600586 35.49505859 3.66694336 36.19373047 4.03881836 36.91357422 C4.73491211 38.27869141 4.73491211 38.27869141 5.44506836 39.67138672 C6.14116211 41.02876953 6.14116211 41.02876953 6.85131836 42.41357422 C7.94506836 44.79638672 7.94506836 44.79638672 7.94506836 46.79638672 C8.48131836 47.06451172 9.01756836 47.33263672 9.57006836 47.60888672 C10.35381836 48.00076172 11.13756836 48.39263672 11.94506836 48.79638672 C12.99694336 49.22951172 14.04881836 49.66263672 15.13256836 50.10888672 C17.94506836 51.79638672 17.94506836 51.79638672 19.00756836 54.04638672 C18.91962718 57.91579853 17.79267363 60.40911038 15.94506836 63.79638672 C13.25756836 66.23388672 13.25756836 66.23388672 10.94506836 67.79638672 C11.30600586 68.25529297 11.66694336 68.71419922 12.03881836 69.18701172 C12.50288086 69.80060547 12.96694336 70.41419922 13.44506836 71.04638672 C13.90913086 71.64966797 14.37319336 72.25294922 14.85131836 72.87451172 C15.94506836 74.79638672 15.94506836 74.79638672 15.94506836 78.79638672 C13.75756836 78.79638672 13.75756836 78.79638672 10.94506836 77.79638672 C8.98318302 75.28835492 7.44585093 72.59997629 5.94506836 69.79638672 C4.95506836 72.43638672 3.96506836 75.07638672 2.94506836 77.79638672 C0.96506836 77.30138672 0.96506836 77.30138672 -1.05493164 76.79638672 C0.25624497 69.68518183 1.96227352 62.74938729 3.94506836 55.79638672 C3.28506836 55.79638672 2.62506836 55.79638672 1.94506836 55.79638672 C2.31631836 54.06388672 2.31631836 54.06388672 2.69506836 52.29638672 C3.50368934 46.06003586 0.28102743 41.80032532 -3.05493164 36.79638672 C-6.09620369 37.46405866 -6.09620369 37.46405866 -7.18774414 39.53857422 C-7.51516602 40.24240234 -7.84258789 40.94623047 -8.17993164 41.67138672 C-8.51250977 42.37005859 -8.84508789 43.06873047 -9.18774414 43.78857422 C-10.14863852 45.93442455 -10.14863852 45.93442455 -11.05493164 48.79638672 C-7.09493164 49.12638672 -3.13493164 49.45638672 0.94506836 49.79638672 C0.94506836 51.11638672 0.94506836 52.43638672 0.94506836 53.79638672 C-1.36493164 53.79638672 -3.67493164 53.79638672 -6.05493164 53.79638672 C-6.71493164 56.76638672 -7.37493164 59.73638672 -8.05493164 62.79638672 C-6.07493164 62.79638672 -4.09493164 62.79638672 -2.05493164 62.79638672 C-1.72493164 63.45638672 -1.39493164 64.11638672 -1.05493164 64.79638672 C-3.05493164 67.79638672 -3.05493164 67.79638672 -6.17993164 68.48388672 C-7.12868164 68.58701172 -8.07743164 68.69013672 -9.05493164 68.79638672 C-9.54993164 70.77638672 -9.54993164 70.77638672 -10.05493164 72.79638672 C-7.74493164 72.79638672 -5.43493164 72.79638672 -3.05493164 72.79638672 C-3.05493164 74.11638672 -3.05493164 75.43638672 -3.05493164 76.79638672 C-4.49028005 77.01906131 -5.92838689 77.22400578 -7.36743164 77.42138672 C-8.16793945 77.53740234 -8.96844727 77.65341797 -9.79321289 77.77294922 C-12.05493164 77.79638672 -12.05493164 77.79638672 -15.05493164 75.79638672 C-15.41821289 73.04638672 -15.41821289 73.04638672 -15.36743164 69.79638672 C-15.36356445 68.72388672 -15.35969727 67.65138672 -15.35571289 66.54638672 C-15.05493164 63.79638672 -15.05493164 63.79638672 -13.05493164 61.79638672 C-12.59681489 59.82403339 -12.59681489 59.82403339 -12.42993164 57.67138672 C-12.24430664 55.75326172 -12.24430664 55.75326172 -12.05493164 53.79638672 C-14.03493164 53.79638672 -16.01493164 53.79638672 -18.05493164 53.79638672 C-18.13743164 54.80701172 -18.21993164 55.81763672 -18.30493164 56.85888672 C-19.12721462 63.64578955 -21.21594623 70.22735977 -23.05493164 76.79638672 C-25.03493164 77.29138672 -25.03493164 77.29138672 -27.05493164 77.79638672 C-28.14674042 74.49109327 -27.93791066 72.3755264 -27.05883789 69.03076172 C-26.8300293 68.14130859 -26.6012207 67.25185547 -26.36547852 66.33544922 C-25.99519531 64.95486328 -25.99519531 64.95486328 -25.61743164 63.54638672 C-25.37444336 62.61052734 -25.13145508 61.67466797 -24.88110352 60.71044922 C-24.28083746 58.40354437 -23.66899545 56.09965721 -23.05493164 53.79638672 C-28.00493164 54.29138672 -28.00493164 54.29138672 -33.05493164 54.79638672 C-33.40426758 56.28912109 -33.75360352 57.78185547 -34.11352539 59.31982422 C-34.57303033 61.27037579 -35.03267287 63.22089496 -35.49243164 65.17138672 C-35.7225293 66.15623047 -35.95262695 67.14107422 -36.18969727 68.15576172 C-36.41206055 69.09677734 -36.63442383 70.03779297 -36.86352539 71.00732422 C-37.06776123 71.87663574 -37.27199707 72.74594727 -37.48242188 73.64160156 C-38.05493164 75.79638672 -38.05493164 75.79638672 -39.05493164 77.79638672 C-40.37493164 77.46638672 -41.69493164 77.13638672 -43.05493164 76.79638672 C-42.50129703 68.76868483 -40.3980522 61.45784604 -38.05493164 53.79638672 C-40.36493164 53.79638672 -42.67493164 53.79638672 -45.05493164 53.79638672 C-45.14774414 55.37419922 -45.14774414 55.37419922 -45.24243164 56.98388672 C-46.06891823 63.5721655 -48.14922031 72.00575307 -53.02758789 76.69091797 C-55.05493164 77.79638672 -55.05493164 77.79638672 -58.17993164 77.67138672 C-61.05493164 76.79638672 -61.05493164 76.79638672 -63.05493164 73.79638672 C-63.45661075 67.9218297 -62.60234499 62.94235434 -61.05493164 57.29638672 C-60.86415039 56.56935547 -60.67336914 55.84232422 -60.47680664 55.09326172 C-60.01155919 53.32532141 -59.53449571 51.56049739 -59.05493164 49.79638672 C-57.07493164 49.30138672 -57.07493164 49.30138672 -55.05493164 48.79638672 C-54.10569929 51.82024306 -54.05248443 53.77372451 -54.83227539 56.83544922 C-55.0159668 57.58052734 -55.1996582 58.32560547 -55.38891602 59.09326172 C-55.58807617 59.86154297 -55.78723633 60.62982422 -55.99243164 61.42138672 C-57.45390013 66.54925248 -57.45390013 66.54925248 -58.05493164 71.79638672 C-56.56993164 71.30138672 -56.56993164 71.30138672 -55.05493164 70.79638672 C-54.05343446 68.21983462 -53.23658807 65.7592104 -52.49243164 63.10888672 C-52.07488384 61.68819002 -51.65692119 60.26761517 -51.23852539 58.84716797 C-51.0411377 58.16348145 -50.84375 57.47979492 -50.64038086 56.77539062 C-49.84666751 54.09238794 -48.95961515 51.44373247 -48.05493164 48.79638672 C-47.33942139 48.9580835 -46.62391113 49.11978027 -45.88671875 49.28637695 C-41.13284921 50.1425571 -36.43225066 49.95246627 -31.61743164 49.85888672 C-30.59327148 49.87371094 -29.56911133 49.88853516 -28.51391602 49.90380859 C-22.81883279 49.83404956 -22.81883279 49.83404956 -18.06176758 47.04980469 C-16.53214684 45.02683262 -15.26401394 43.02293033 -14.05493164 40.79638672 C-13.43618164 39.80638672 -12.81743164 38.81638672 -12.17993164 37.79638672 C-11.80868164 37.13638672 -11.43743164 36.47638672 -11.05493164 35.79638672 C-12.37493164 35.13638672 -13.69493164 34.47638672 -15.05493164 33.79638672 C-14.05493164 30.79638672 -14.05493164 30.79638672 -11.05493164 28.85888672 C-7.63582518 26.99572577 -7.63582518 26.99572577 -7.05493164 22.79638672 C-9.36493164 20.81638672 -11.67493164 18.83638672 -14.05493164 16.79638672 C-15.06555664 17.62138672 -16.07618164 18.44638672 -17.11743164 19.29638672 C-20.80638651 21.96899688 -23.47503741 22.26372286 -28.05493164 21.79638672 C-26.70959698 18.67564456 -25.37982507 16.98702753 -22.64086914 14.99169922 C-21.9615332 14.49025391 -21.28219727 13.98880859 -20.58227539 13.47216797 C-19.87200195 12.96041016 -19.16172852 12.44865234 -18.42993164 11.92138672 C-17.74286133 11.41736328 -17.05579102 10.91333984 -16.34790039 10.39404297 C-14.95890706 9.37510039 -13.56531786 8.36239357 -12.16723633 7.35595703 C-10.71574094 6.28427967 -9.29008032 5.17699157 -7.88793945 4.04150391 C-7.1928125 3.48366211 -6.49768555 2.92582031 -5.78149414 2.35107422 C-4.85071045 1.58126221 -4.85071045 1.58126221 -3.90112305 0.79589844 C-2.05493164 -0.20361328 -2.05493164 -0.20361328 0 0 Z M-6.24243164 9.79638672 C-7.31557617 10.63169922 -7.31557617 10.63169922 -8.41040039 11.48388672 C-8.9530957 11.91701172 -9.49579102 12.35013672 -10.05493164 12.79638672 C-9.2637526 14.79622206 -9.2637526 14.79622206 -8.05493164 16.79638672 C-7.06493164 17.12638672 -6.07493164 17.45638672 -5.05493164 17.79638672 C-4.72493164 17.13638672 -4.39493164 16.47638672 -4.05493164 15.79638672 C-2.73493164 15.79638672 -1.41493164 15.79638672 -0.05493164 15.79638672 C0.60506836 17.77638672 1.26506836 19.75638672 1.94506836 21.79638672 C4.25506836 19.81638672 6.56506836 17.83638672 8.94506836 15.79638672 C8.28506836 14.47638672 7.62506836 13.15638672 6.94506836 11.79638672 C5.95506836 11.46638672 4.96506836 11.13638672 3.94506836 10.79638672 C3.94506836 10.13638672 3.94506836 9.47638672 3.94506836 8.79638672 C-0.60229949 5.76480815 -2.23382379 6.64207234 -6.24243164 9.79638672 Z M-3.05493164 18.79638672 C-3.38493164 19.45638672 -3.71493164 20.11638672 -4.05493164 20.79638672 C-2.73493164 21.12638672 -1.41493164 21.45638672 -0.05493164 21.79638672 C-0.38493164 20.80638672 -0.71493164 19.81638672 -1.05493164 18.79638672 C-1.71493164 18.79638672 -2.37493164 18.79638672 -3.05493164 18.79638672 Z M-5.05493164 26.79638672 C-6.04493164 28.77638672 -7.03493164 30.75638672 -8.05493164 32.79638672 C-6.92959059 34.15257171 -6.92959059 34.15257171 -3.99243164 33.85888672 C-3.02305664 33.83826172 -2.05368164 33.81763672 -1.05493164 33.79638672 C-0.01043253 30.66288939 -0.12069519 29.80670415 -1.05493164 26.79638672 C-2.37493164 26.79638672 -3.69493164 26.79638672 -5.05493164 26.79638672 Z M8.94506836 53.79638672 C8.28506836 56.76638672 7.62506836 59.73638672 6.94506836 62.79638672 C9.38224094 62.52604038 9.38224094 62.52604038 11.94506836 61.79638672 C14.27898039 59.01524616 14.27898039 59.01524616 13.57006836 56.10888672 C13.36381836 55.34576172 13.15756836 54.58263672 12.94506836 53.79638672 C11.62506836 53.79638672 10.30506836 53.79638672 8.94506836 53.79638672 Z " fill="#31127D" transform="translate(82.054931640625,2.20361328125)"/>
<path d="M0 0 C2.0625 0.4375 2.0625 0.4375 4 1 C3.87882812 1.58265625 3.75765625 2.1653125 3.6328125 2.765625 C2.25920651 9.48572816 1.09358533 16.22907805 0 23 C0.99 22.67 1.98 22.34 3 22 C4.00149718 19.4234479 4.81834357 16.96282368 5.5625 14.3125 C5.9800478 12.8918033 6.39801045 11.47122845 6.81640625 10.05078125 C7.11248779 9.02525146 7.11248779 9.02525146 7.41455078 7.97900391 C8.20826414 5.29600122 9.09531649 2.64734575 10 0 C10.68449219 0.16822266 11.36898437 0.33644531 12.07421875 0.50976562 C15.4150329 1.06954156 18.42825857 0.99591253 21.8125 0.84375 C23.14973741 0.79031021 24.48697707 0.7369267 25.82421875 0.68359375 C27.89936304 0.59362382 29.97437031 0.50116637 32.04931641 0.40673828 C41.11117512 0.00403738 49.96553036 0.06406607 59 1 C59 2.32 59 3.64 59 5 C56.69 5 54.38 5 52 5 C51.34 7.97 50.68 10.94 50 14 C51.98 14 53.96 14 56 14 C56.495 14.99 56.495 14.99 57 16 C55 19 55 19 51.875 19.6875 C50.92625 19.790625 49.9775 19.89375 49 20 C48.67 21.32 48.34 22.64 48 24 C50.31 24 52.62 24 55 24 C55 25.32 55 26.64 55 28 C53.56465159 28.2226746 52.12654475 28.42761906 50.6875 28.625 C49.48673828 28.79902344 49.48673828 28.79902344 48.26171875 28.9765625 C46 29 46 29 43 27 C42.63671875 24.25 42.63671875 24.25 42.6875 21 C42.69136719 19.9275 42.69523437 18.855 42.69921875 17.75 C43 15 43 15 45 13 C45.45811675 11.02764667 45.45811675 11.02764667 45.625 8.875 C45.810625 6.956875 45.810625 6.956875 46 5 C44.02 5 42.04 5 40 5 C39.9175 6.010625 39.835 7.02125 39.75 8.0625 C38.92771702 14.84940284 36.83898541 21.43097306 35 28 C33.68 28.33 32.36 28.66 31 29 C29.90819122 25.69470655 30.11702098 23.57913968 30.99609375 20.234375 C31.22490234 19.34492187 31.45371094 18.45546875 31.68945312 17.5390625 C31.93630859 16.61867188 32.18316406 15.69828125 32.4375 14.75 C32.68048828 13.81414062 32.92347656 12.87828125 33.17382812 11.9140625 C33.77409418 9.60715765 34.38593619 7.30327049 35 5 C31.7 5.33 28.4 5.66 25 6 C24.65066406 7.49273437 24.30132812 8.98546875 23.94140625 10.5234375 C23.48190131 12.47398908 23.02225877 14.42450824 22.5625 16.375 C22.33240234 17.35984375 22.10230469 18.3446875 21.86523438 19.359375 C21.53168945 20.77089844 21.53168945 20.77089844 21.19140625 22.2109375 C20.88505249 23.51490479 20.88505249 23.51490479 20.57250977 24.84521484 C20 27 20 27 19 29 C17.68 28.67 16.36 28.34 15 28 C15.55363461 19.97229811 17.65687944 12.66145933 20 5 C17.69 5 15.38 5 13 5 C12.9071875 6.5778125 12.9071875 6.5778125 12.8125 8.1875 C11.98601341 14.77577879 9.90571133 23.20936635 5.02734375 27.89453125 C3 29 3 29 -0.125 28.875 C-3 28 -3 28 -5 25 C-5.39240982 19.16368256 -4.57548567 14.17991738 -3.0625 8.5625 C-2.78889648 7.48452148 -2.78889648 7.48452148 -2.50976562 6.38476562 C-1.15055006 1.15055006 -1.15055006 1.15055006 0 0 Z " fill="#D5393C" transform="translate(24,51)"/>
<path d="M0 0 C1.65 0.33 3.3 0.66 5 1 C5.33 5.29 5.66 9.58 6 14 C8.31 9.38 10.62 4.76 13 0 C15.475 0.495 15.475 0.495 18 1 C17.55194549 10.30099365 16.15662766 18.95301478 14 28 C12.68 28 11.36 28 10 28 C10.33 23.71 10.66 19.42 11 15 C9.02 19.29 7.04 23.58 5 28 C3.35 27.67 1.7 27.34 0 27 C0 23.04 0 19.08 0 15 C-0.26554688 15.92683594 -0.53109375 16.85367187 -0.8046875 17.80859375 C-1.15789063 19.00613281 -1.51109375 20.20367187 -1.875 21.4375 C-2.22304687 22.63246094 -2.57109375 23.82742187 -2.9296875 25.05859375 C-4 28 -4 28 -6 29 C-6.66 28.67 -7.32 28.34 -8 28 C-7.43616251 21.84007544 -6.03558082 16.45329038 -4 10.625 C-3.72671875 9.81933594 -3.4534375 9.01367188 -3.171875 8.18359375 C-1.1860119 2.37202381 -1.1860119 2.37202381 0 0 Z " fill="#D3383A" transform="translate(8,13)"/>
<path d="M0 0 C3.14431363 1.28740442 5.49288345 3.56977671 8.00756836 5.79638672 C9.15772605 6.79610254 10.30878436 7.79478307 11.46069336 8.79248047 C12.03883789 9.29505371 12.61698242 9.79762695 13.21264648 10.31542969 C16.72447927 13.31751222 20.3689582 16.15788612 23.99584961 19.01904297 C24.6390918 19.60556641 25.28233398 20.19208984 25.94506836 20.79638672 C25.94506836 21.45638672 25.94506836 22.11638672 25.94506836 22.79638672 C20.49291012 23.3527294 17.52766412 22.5331787 13.32397461 19.24169922 C11.41954915 17.24555922 11.02284013 15.51839863 10.94506836 12.79638672 C8.63506836 12.13638672 6.32506836 11.47638672 3.94506836 10.79638672 C3.94506836 10.13638672 3.94506836 9.47638672 3.94506836 8.79638672 C1.28300759 7.83487092 1.28300759 7.83487092 -2.05493164 7.79638672 C-4.63585391 9.17699983 -6.83448262 10.89783712 -9.05493164 12.79638672 C-8.72493164 14.77638672 -8.39493164 16.75638672 -8.05493164 18.79638672 C-7.06493164 19.12638672 -6.07493164 19.45638672 -5.05493164 19.79638672 C-5.05493164 20.78638672 -5.05493164 21.77638672 -5.05493164 22.79638672 C-8.99166808 21.48414124 -11.28212459 19.87728345 -14.05493164 16.79638672 C-15.57086914 18.03388672 -15.57086914 18.03388672 -17.11743164 19.29638672 C-20.80638651 21.96899688 -23.47503741 22.26372286 -28.05493164 21.79638672 C-26.70959698 18.67564456 -25.37982507 16.98702753 -22.64086914 14.99169922 C-21.9615332 14.49025391 -21.28219727 13.98880859 -20.58227539 13.47216797 C-19.87200195 12.96041016 -19.16172852 12.44865234 -18.42993164 11.92138672 C-17.74286133 11.41736328 -17.05579102 10.91333984 -16.34790039 10.39404297 C-14.95890706 9.37510039 -13.56531786 8.36239357 -12.16723633 7.35595703 C-10.71574094 6.28427967 -9.29008032 5.17699157 -7.88793945 4.04150391 C-6.84524902 3.20474121 -6.84524902 3.20474121 -5.78149414 2.35107422 C-4.85071045 1.58126221 -4.85071045 1.58126221 -3.90112305 0.79589844 C-2.05493164 -0.20361328 -2.05493164 -0.20361328 0 0 Z " fill="#320985" transform="translate(82.054931640625,2.20361328125)"/>
<path d="M0 0 C2.9375 1.5625 2.9375 1.5625 5 4 C5.63175735 7.4114897 5.81223502 9.68907657 3.9375 12.71484375 C2.10047148 14.95098859 0.04478648 16.95521352 -2 19 C-1.62746094 19.54269531 -1.25492188 20.08539063 -0.87109375 20.64453125 C-0.39800781 21.35996094 0.07507812 22.07539062 0.5625 22.8125 C1.27599609 23.87404297 1.27599609 23.87404297 2.00390625 24.95703125 C3 27 3 27 2 30 C-0.70438996 29.63594751 -1.74406383 29.31857318 -3.484375 27.15234375 C-3.90203125 26.42144531 -4.3196875 25.69054687 -4.75 24.9375 C-5.17796875 24.20402344 -5.6059375 23.47054687 -6.046875 22.71484375 C-6.36140625 22.14894531 -6.6759375 21.58304688 -7 21 C-7.99 23.31 -8.98 25.62 -10 28 C-11.32 28 -12.64 28 -14 28 C-13.39700836 20.76410027 -11.8849413 14.00629124 -10 7 C-10.66 6.67 -11.32 6.34 -12 6 C-11.1875 3.5625 -11.1875 3.5625 -10 1 C-6.39427296 -0.20190901 -3.7897565 -0.32670315 0 0 Z M-4 4 C-5.31626692 7.61973402 -6 10.09567131 -6 14 C-3.13275314 13.42655063 -2.1385485 13.1385485 0 11 C0.16681109 7.91652174 0.16681109 7.91652174 0 5 C-1.32 4.67 -2.64 4.34 -4 4 Z " fill="#E13234" transform="translate(40,13)"/>
<path d="M0 0 C0.97710937 -0.01417969 1.95421875 -0.02835938 2.9609375 -0.04296875 C5.625 0.1875 5.625 0.1875 8.625 2.1875 C9.99447085 5.61117713 9.62211318 7.19664158 8.5 10.75 C6.58322696 14.2640839 4.90845571 15.96894885 1.625 18.1875 C1.9859375 18.64640625 2.346875 19.1053125 2.71875 19.578125 C3.1828125 20.19171875 3.646875 20.8053125 4.125 21.4375 C4.5890625 22.04078125 5.053125 22.6440625 5.53125 23.265625 C6.625 25.1875 6.625 25.1875 6.625 29.1875 C4.4375 29.1875 4.4375 29.1875 1.625 28.1875 C-0.33688534 25.67946821 -1.87421743 22.99108957 -3.375 20.1875 C-4.365 22.8275 -5.355 25.4675 -6.375 28.1875 C-7.695 27.8575 -9.015 27.5275 -10.375 27.1875 C-9.06382339 20.07629511 -7.35779484 13.14050057 -5.375 6.1875 C-6.035 6.1875 -6.695 6.1875 -7.375 6.1875 C-6.33007432 0.36577123 -5.93779617 0.03896192 0 0 Z M-0.375 4.1875 C-1.035 7.1575 -1.695 10.1275 -2.375 13.1875 C0.06217258 12.91715366 0.06217258 12.91715366 2.625 12.1875 C4.95891203 9.40635944 4.95891203 9.40635944 4.25 6.5 C4.04375 5.736875 3.8375 4.97375 3.625 4.1875 C2.305 4.1875 0.985 4.1875 -0.375 4.1875 Z " fill="#D5383C" transform="translate(91.375,51.8125)"/>
<path d="M0 0 C2 2 2 2 2.25 4.5 C2 7 2 7 0 9 C-0.99 9 -1.98 9 -3 9 C-3 7.35 -3 5.7 -3 4 C-6.83203643 7.42866417 -8.88814931 9.94613321 -10 15 C-10.07522969 17.33212027 -10.09325876 19.6685311 -10 22 C-9.01 21.01 -8.02 20.02 -7 19 C-7.66 18.67 -8.32 18.34 -9 18 C-8.67 16.35 -8.34 14.7 -8 13 C-5.36 13 -2.72 13 0 13 C-0.78533987 18.18324317 -2.23434099 23.11663038 -5.875 27 C-8.67947231 28.31975167 -10.10420918 27.99066528 -13 27 C-15.41999841 24.58000159 -15.6905973 22.69725868 -16.03125 19.3515625 C-15.94128197 12.58146812 -13.26508518 6.16980022 -9 1 C-5.82525783 -1.35545387 -3.71425711 -1.1729233 0 0 Z " fill="#CF3637" transform="translate(17,52)"/>
<path d="M0 0 C1.65 0.33 3.3 0.66 5 1 C5.66 3.31 6.32 5.62 7 8 C6.34 8 5.68 8 5 8 C4.67 10.64 4.34 13.28 4 16 C3.67 14.68 3.34 13.36 3 12 C1.68 12 0.36 12 -1 12 C-1.66 13.32 -2.32 14.64 -3 16 C-3 15.34 -3 14.68 -3 14 C-3.66 13.67 -4.32 13.34 -5 13 C-4.505 12.236875 -4.01 11.47375 -3.5 10.6875 C-1.75631692 8.07636249 -1.75631692 8.07636249 -2 5 C-2.66 4.67 -3.32 4.34 -4 4 C-3.67 3.34 -3.34 2.68 -3 2 C-2.34 2.33 -1.68 2.66 -1 3 C-0.67 2.01 -0.34 1.02 0 0 Z M1 4 C0.67 4.66 0.34 5.32 0 6 C1.32 6.33 2.64 6.66 4 7 C3.67 6.01 3.34 5.02 3 4 C2.34 4 1.68 4 1 4 Z " fill="#33177F" transform="translate(78,17)"/>
<path d="M0 0 C1.231394 2.46278801 1.07159196 4.2795055 1 7 C1.33 6.34 1.66 5.68 2 5 C4.31 5 6.62 5 9 5 C9 5.33 9 5.66 9 6 C7.35 6.33 5.7 6.66 4 7 C3.67 8.32 3.34 9.64 3 11 C5.31 11 7.62 11 10 11 C10 12.32 10 13.64 10 15 C8.56465159 15.2226746 7.12654475 15.42761906 5.6875 15.625 C4.88699219 15.74101563 4.08648437 15.85703125 3.26171875 15.9765625 C1 16 1 16 -2 14 C-2.36328125 11.25 -2.36328125 11.25 -2.3125 8 C-2.30863281 6.9275 -2.30476563 5.855 -2.30078125 4.75 C-2 2 -2 2 0 0 Z " fill="#D13E40" transform="translate(69,64)"/>
<path d="M0 0 C2.9375 1.5625 2.9375 1.5625 5 4 C5.4375 7.625 5.4375 7.625 5 11 C4.34 11.66 3.68 12.32 3 13 C2.95101562 12.36191406 2.90203125 11.72382813 2.8515625 11.06640625 C2.77679688 10.24011719 2.70203125 9.41382813 2.625 8.5625 C2.55539063 7.73878906 2.48578125 6.91507813 2.4140625 6.06640625 C2.27742188 5.38449219 2.14078125 4.70257812 2 4 C1.34 3.67 0.68 3.34 0 3 C0 3.66 0 4.32 0 5 C-0.928125 5.12375 -0.928125 5.12375 -1.875 5.25 C-4.18437567 5.81258459 -4.18437567 5.81258459 -5.25 8.0625 C-5.4975 8.701875 -5.745 9.34125 -6 10 C-6.33 8.02 -6.66 6.04 -7 4 C-6.34 3.67 -5.68 3.34 -5 3 C-6.32 2.67 -7.64 2.34 -9 2 C-9.33 3.65 -9.66 5.3 -10 7 C-10.66 6.67 -11.32 6.34 -12 6 C-11.1875 3.5625 -11.1875 3.5625 -10 1 C-6.39427296 -0.20190901 -3.7897565 -0.32670315 0 0 Z " fill="#CC3E43" transform="translate(40,13)"/>
<path d="M0 0 C4.61766625 2.92827616 9.18584346 6.05042961 13 10 C13 10.66 13 11.32 13 12 C8.58437517 12.43290439 6.65278204 12.50000327 3.0625 9.75 C1 7 1 7 1 3 C0.67 2.01 0.34 1.02 0 0 Z " fill="#2D0E77" transform="translate(95,13)"/>
<path d="M0 0 C0.93423645 3.01031744 1.04449911 3.86650268 0 7 C1.32 6.67 2.64 6.34 4 6 C4 9.86695678 2.58090029 12.5088452 1 16 C-0.32 16 -1.64 16 -3 16 C-2.52013969 10.43109483 -1.70084819 5.32932432 0 0 Z " fill="#D1383A" transform="translate(29,25)"/>
<path d="M0 0 C2.90443686 3.53583618 2.90443686 3.53583618 3.4375 6.125 C3.83648408 8.215901 3.83648408 8.215901 6.0625 9.25 C6.701875 9.4975 7.34125 9.745 8 10 C8 10.33 8 10.66 8 11 C5.36 11 2.72 11 0 11 C-1.32 7.7 -2.64 4.4 -4 1 C-3.34 1 -2.68 1 -2 1 C-2 1.66 -2 2.32 -2 3 C-1.34 3 -0.68 3 0 3 C0 2.01 0 1.02 0 0 Z " fill="#430D7C" transform="translate(86,41)"/>
<path d="M0 0 C0.33 1.32 0.66 2.64 1 4 C1.33 3.67 1.66 3.34 2 3 C2.66 3 3.32 3 4 3 C3.74379316 4.6065676 3.46944129 6.2102483 3.1875 7.8125 C3.03667969 8.70582031 2.88585937 9.59914063 2.73046875 10.51953125 C1.94604607 13.18321256 1.11372201 14.25690322 -1 16 C-1.66 15.67 -2.32 15.34 -3 15 C-2.44854729 9.76119922 -1.57077907 5.02649303 0 0 Z " fill="#D1393C" transform="translate(3,26)"/>
<path d="M0 0 C0.66 0 1.32 0 2 0 C2 1.65 2 3.3 2 5 C3.98 5 5.96 5 8 5 C7.67 6.32 7.34 7.64 7 9 C4.69 8.67 2.38 8.34 0 8 C-0.33 9.32 -0.66 10.64 -1 12 C-1.92470553 7.28400182 -2.22923777 4.32734391 0 0 Z " fill="#EA2C2D" transform="translate(71,61)"/>
<path d="M0 0 C5.94 0 11.88 0 18 0 C18 0.66 18 1.32 18 2 C16.35 2 14.7 2 13 2 C12.34 3.32 11.68 4.64 11 6 C10.34 5.01 9.68 4.02 9 3 C7.03638136 2.42251197 7.03638136 2.42251197 4.875 2.3125 C3.59625 2.209375 2.3175 2.10625 1 2 C0.67 2.66 0.34 3.32 0 4 C-0.33 3.34 -0.66 2.68 -1 2 C-0.67 1.34 -0.34 0.68 0 0 Z " fill="#EA2F32" transform="translate(35,53)"/>
<path d="M0 0 C0.33 0 0.66 0 1 0 C0.125 6.75 0.125 6.75 -1 9 C-1.66 9 -2.32 9 -3 9 C-3 9.99 -3 10.98 -3 12 C-4.98 12.33 -6.96 12.66 -9 13 C-8.6875 11.0625 -8.6875 11.0625 -8 9 C-7.01 8.67 -6.02 8.34 -5 8 C-3.78130071 5.49552484 -3.78130071 5.49552484 -3 3 C-2.34 3 -1.68 3 -1 3 C-0.67 2.01 -0.34 1.02 0 0 Z " fill="#DA3136" transform="translate(32,65)"/>
<path d="M0 0 C2.74277578 3.19990508 4.6302836 6.00499382 6 10 C4.68 10.33 3.36 10.66 2 11 C0.35 8.69 -1.3 6.38 -3 4 C-2.67 3.34 -2.34 2.68 -2 2 C-1.34 2.33 -0.68 2.66 0 3 C0 2.01 0 1.02 0 0 Z " fill="#CD3A40" transform="translate(37,32)"/>
<path d="M0 0 C2.97 0.495 2.97 0.495 6 1 C5.34 3.97 4.68 6.94 4 10 C5.98 10 7.96 10 10 10 C10.33 10.66 10.66 11.32 11 12 C10.34 12.66 9.68 13.32 9 14 C9 13.01 9 12.02 9 11 C7.02 11 5.04 11 3 11 C3 9.35 3 7.7 3 6 C2.34 6 1.68 6 1 6 C0.67 6.66 0.34 7.32 0 8 C0 5.36 0 2.72 0 0 Z " fill="#CD3D3E" transform="translate(70,55)"/>
<path d="M0 0 C0 0.99 0 1.98 0 3 C-2 4.6875 -2 4.6875 -4 6 C-2.68 6.66 -1.36 7.32 0 8 C-3.6441774 10.4294516 -5.71241272 10.16179575 -10 10 C-8.5741914 6.54804233 -6.90253666 4.8985744 -3.875 2.75 C-3.15054688 2.22921875 -2.42609375 1.7084375 -1.6796875 1.171875 C-1.12539063 0.78515625 -0.57109375 0.3984375 0 0 Z " fill="#310F73" transform="translate(64,14)"/>
<path d="M0 0 C1.99954746 -0.04254356 4.00041636 -0.04080783 6 0 C7 1 7 1 7.0625 4.0625 C7.041875 5.031875 7.02125 6.00125 7 7 C7.66 7 8.32 7 9 7 C9 5.02 9 3.04 9 1 C9.66 1.33 10.32 1.66 11 2 C10.34 4.64 9.68 7.28 9 10 C8.01 10 7.02 10 6 10 C5.67 7.36 5.34 4.72 5 2 C3.68 1.67 2.36 1.34 1 1 C0.67 2.32 0.34 3.64 0 5 C0 3.35 0 1.7 0 0 Z " fill="#CD4043" transform="translate(90,55)"/>
<path d="M0 0 C-0.33 2.64 -0.66 5.28 -1 8 C-1.66 8 -2.32 8 -3 8 C-3.33 6.02 -3.66 4.04 -4 2 C-6.64 2 -9.28 2 -12 2 C-12.33 1.34 -12.66 0.68 -13 0 C-8.55176251 -1.48274583 -4.47568357 -1.37713341 0 0 Z " fill="#E92B2E" transform="translate(100,54)"/>
<path d="M0 0 C0.66 1.32 1.32 2.64 2 4 C1.01 4.495 1.01 4.495 0 5 C-0.65213292 7.02463255 -0.65213292 7.02463255 -1 9 C-2.65 8.67 -4.3 8.34 -6 8 C-5.67 6.35 -5.34 4.7 -5 3 C-4.01 2.67 -3.02 2.34 -2 2 C-1.34 1.34 -0.68 0.68 0 0 Z " fill="#432B8A" transform="translate(83,20)"/>
<path d="M0 0 C1 1 1 1 1.0625 3.5625 C1.041875 4.366875 1.02125 5.17125 1 6 C0.34 6 -0.32 6 -1 6 C-1 4.68 -1 3.36 -1 2 C-2.94999129 2.19471111 -2.94999129 2.19471111 -5 3 C-6.28436734 4.9837767 -6.28436734 4.9837767 -7 7 C-7.66 6.67 -8.32 6.34 -9 6 C-8.6875 4.125 -8.6875 4.125 -8 2 C-4.77786243 -0.14809171 -3.72224599 -0.29386153 0 0 Z " fill="#E82D2C" transform="translate(16,53)"/>
<path d="M0 0 C1.32 0.33 2.64 0.66 4 1 C4 2.32 4 3.64 4 5 C3.01 5.495 3.01 5.495 2 6 C1.34786708 8.02463255 1.34786708 8.02463255 1 10 C0.01 10 -0.98 10 -2 10 C-2 8.35 -2 6.7 -2 5 C-1.34 5 -0.68 5 0 5 C0 3.35 0 1.7 0 0 Z " fill="#EC2C30" transform="translate(11,29)"/>
<path d="M0 0 C1.98 0 3.96 0 6 0 C5.50886719 0.39832031 5.01773438 0.79664063 4.51171875 1.20703125 C2.56816575 3.5121755 2.683464 4.7196719 2.8125 7.6875 C2.83957031 8.49574219 2.86664063 9.30398437 2.89453125 10.13671875 C2.92933594 10.75160156 2.96414062 11.36648437 3 12 C2.67 12 2.34 12 2 12 C2 10.35 2 8.7 2 7 C1.34 7 0.68 7 0 7 C-0.33 7.99 -0.66 8.98 -1 10 C-1.125 2.25 -1.125 2.25 0 0 Z " fill="#DF3234" transform="translate(31,15)"/>
<path d="M0 0 C0.33 0 0.66 0 1 0 C1.1799928 5.21979128 0.97094808 9.07262981 -1 14 C-1.33 14 -1.66 14 -2 14 C-2.05389087 12.04196493 -2.09274217 10.08351091 -2.125 8.125 C-2.14820313 7.03445312 -2.17140625 5.94390625 -2.1953125 4.8203125 C-2 2 -2 2 0 0 Z " fill="#E72F2D" transform="translate(5,62)"/>
<path d="M0 0 C0.99 0 1.98 0 3 0 C3 4.29 3 8.58 3 13 C2.34 13 1.68 13 1 13 C0.67 8.71 0.34 4.42 0 0 Z " fill="#E6302F" transform="translate(9,15)"/>
<path d="M0 0 C1.32 0.66 2.64 1.32 4 2 C3.6875 3.9375 3.6875 3.9375 3 6 C2.01 6.33 1.02 6.66 0 7 C-0.66 6.67 -1.32 6.34 -2 6 C-1.125 1.125 -1.125 1.125 0 0 Z " fill="#C24645" transform="translate(47,35)"/>
<path d="M0 0 C0.66 0 1.32 0 2 0 C2 1.65 2 3.3 2 5 C2.66 5 3.32 5 4 5 C3.67 6.32 3.34 7.64 3 9 C1.68 8.67 0.36 8.34 -1 8 C-0.67 5.36 -0.34 2.72 0 0 Z " fill="#CD4141" transform="translate(55,71)"/>
<path d="M0 0 C0.99 0.33 1.98 0.66 3 1 C3.74926071 4.66305234 4.2380014 7.42355152 3 11 C2.01 11 1.02 11 0 11 C0 7.37 0 3.74 0 0 Z " fill="#E62E32" transform="translate(40,16)"/>
<path d="M0 0 C2.97 0.495 2.97 0.495 6 1 C5.67 2.65 5.34 4.3 5 6 C3.02 5.34 1.04 4.68 -1 4 C-0.67 2.68 -0.34 1.36 0 0 Z " fill="#EC2D2D" transform="translate(86,66)"/>
<path d="M0 0 C2.64 0 5.28 0 8 0 C8 1.32 8 2.64 8 4 C7.34 4 6.68 4 6 4 C6 3.34 6 2.68 6 2 C4.02 2 2.04 2 0 2 C0.33 2.99 0.66 3.98 1 5 C0.34 5 -0.32 5 -1 5 C-0.67 3.35 -0.34 1.7 0 0 Z " fill="#C33D44" transform="translate(9,65)"/>
<path d="M0 0 C1.32 0 2.64 0 4 0 C3.88637738 1.4800841 3.75877092 2.95910074 3.625 4.4375 C3.52058594 5.67306641 3.52058594 5.67306641 3.4140625 6.93359375 C3.27742188 7.61550781 3.14078125 8.29742187 3 9 C2.01 9.495 2.01 9.495 1 10 C1.33 7.69 1.66 5.38 2 3 C1.34 3 0.68 3 0 3 C0 2.01 0 1.02 0 0 Z " fill="#E92D2E" transform="translate(21,15)"/>
<path d="M0 0 C0.33 0.66 0.66 1.32 1 2 C0.67 2.99 0.34 3.98 0 5 C1.32 4.34 2.64 3.68 4 3 C4 3.99 4 4.98 4 6 C1.03 6 -1.94 6 -5 6 C-3.35 4.02 -1.7 2.04 0 0 Z " fill="#431373" transform="translate(67,45)"/>
<path d="M0 0 C0.66 0.33 1.32 0.66 2 1 C2.40729228 3.32156597 2.74438677 5.6568787 3 8 C2.34 8 1.68 8 1 8 C1 7.34 1 6.68 1 6 C0.34 6 -0.32 6 -1 6 C-1.33 4.68 -1.66 3.36 -2 2 C-1.34 2 -0.68 2 0 2 C0 1.34 0 0.68 0 0 Z " fill="#300A91" transform="translate(83,36)"/>
<path d="M0 0 C2.3431213 0.25561323 4.67843403 0.59270772 7 1 C7.33 1.66 7.66 2.32 8 3 C7.01 4.485 7.01 4.485 6 6 C6 4.68 6 3.36 6 2 C4.68 2 3.36 2 2 2 C1.34 3.32 0.68 4.64 0 6 C0 5.34 0 4.68 0 4 C-0.66 3.67 -1.32 3.34 -2 3 C-1.34 2.01 -0.68 1.02 0 0 Z " fill="#392475" transform="translate(75,27)"/>
<path d="M0 0 C0 2.31 0 4.62 0 7 C-0.99 7.33 -1.98 7.66 -3 8 C-3 5.69 -3 3.38 -3 1 C-1 0 -1 0 0 0 Z " fill="#E3312F" transform="translate(61,59)"/>
<path d="M0 0 C4.875 1.75 4.875 1.75 6 4 C3.03 3.505 3.03 3.505 0 3 C-0.33 3.66 -0.66 4.32 -1 5 C-1.66 4.67 -2.32 4.34 -3 4 C-3 3.34 -3 2.68 -3 2 C-2.01 2 -1.02 2 0 2 C0 1.34 0 0.68 0 0 Z " fill="#2E0975" transform="translate(89,9)"/>
<path d="M0 0 C0.33 0 0.66 0 1 0 C1 2.64 1 5.28 1 8 C1.66 8 2.32 8 3 8 C3 8.66 3 9.32 3 10 C1.68 9.67 0.36 9.34 -1 9 C-0.67 6.03 -0.34 3.06 0 0 Z " fill="#C64141" transform="translate(40,70)"/>
<path d="M0 0 C0.99 1.32 1.98 2.64 3 4 C2.67 4.66 2.34 5.32 2 6 C1.34 5.67 0.68 5.34 0 5 C-0.66 5.66 -1.32 6.32 -2 7 C-2.66 5.02 -3.32 3.04 -4 1 C-3.34 1 -2.68 1 -2 1 C-2 1.66 -2 2.32 -2 3 C-1.34 3 -0.68 3 0 3 C0 2.01 0 1.02 0 0 Z " fill="#371678" transform="translate(86,41)"/>
<path d="M0 0 C2.97 0.495 2.97 0.495 6 1 C6 1.66 6 2.32 6 3 C4.02 3.33 2.04 3.66 0 4 C0 2.68 0 1.36 0 0 Z " fill="#DD2B2B" transform="translate(23,74)"/>
<path d="M0 0 C0.33 0 0.66 0 1 0 C1.33 3.3 1.66 6.6 2 10 C1.01 10 0.02 10 -1 10 C-0.67 6.7 -0.34 3.4 0 0 Z " fill="#2C0A87" transform="translate(83,25)"/>
<path d="M0 0 C2.97 0 5.94 0 9 0 C8.01 0.495 8.01 0.495 7 1 C7 1.66 7 2.32 7 3 C4.625 3.1875 4.625 3.1875 2 3 C1.34 2.01 0.68 1.02 0 0 Z " fill="#D4363A" transform="translate(62,53)"/>
<path d="M0 0 C0.66 0 1.32 0 2 0 C1.67 1.65 1.34 3.3 1 5 C0.01 5.33 -0.98 5.66 -2 6 C-1.125 1.125 -1.125 1.125 0 0 Z " fill="#360491" transform="translate(69,44)"/>
</svg>
